<?xml version="1.0" encoding="UTF-8" standalone="no"?><svg xmlns="http://www.w3.org/2000/svg" xmlns:xlink="http://www.w3.org/1999/xlink" contentScriptType="application/ecmascript" contentStyleType="text/css" height="151px" preserveAspectRatio="none" style="width:1392px;height:151px;" version="1.1" viewBox="0 0 1392 151" width="1392px" zoomAndPan="magnify"><defs><filter height="300%" id="fppxgmf" width="300%" x="-1" y="-1"><feGaussianBlur result="blurOut" stdDeviation="2.0"/><feColorMatrix in="blurOut" result="blurOut2" type="matrix" values="0 0 0 0 0 0 0 0 0 0 0 0 0 0 0 0 0 0 .4 0"/><feOffset dx="4.0" dy="4.0" in="blurOut2" result="blurOut3"/><feBlend in="SourceGraphic" in2="blurOut3" mode="normal"/></filter></defs><g><!--entity FormDataGroup--><ellipse cx="742.466" cy="17" fill="#FEFECE" filter="url(#fppxgmf)" rx="8" ry="8" style="stroke: #A80036; stroke-width: 2.0;"/><text fill="#000000" font-family="sans-serif" font-size="14" lengthAdjust="spacingAndGlyphs" textLength="110" x="687.466" y="38.9951">FormDataGroup</text><!--entity FirstDataProvider--><ellipse cx="122.7165" cy="129" fill="#FEFECE" filter="url(#fppxgmf)" rx="8" ry="8" style="stroke: #A80036; stroke-width: 2.0;"/><text fill="#000000" font-family="sans-serif" font-size="14" lengthAdjust="spacingAndGlyphs" textLength="117" x="64.2165" y="150.9951">FirstDataProvider</text><!--entity SecondDataProvider--><ellipse cx="518.716" cy="129" fill="#FEFECE" filter="url(#fppxgmf)" rx="8" ry="8" style="stroke: #A80036; stroke-width: 2.0;"/><text fill="#000000" font-family="sans-serif" font-size="14" lengthAdjust="spacingAndGlyphs" textLength="141" x="448.216" y="150.9951">SecondDataProvider</text><!--entity ...--><ellipse cx="993.466" cy="129" fill="#FEFECE" filter="url(#fppxgmf)" rx="8" ry="8" style="stroke: #A80036; stroke-width: 2.0;"/><text fill="#000000" font-family="sans-serif" font-size="14" lengthAdjust="spacingAndGlyphs" textLength="12" x="987.466" y="150.9951">...</text><!--entity LastDataProvider--><ellipse cx="1309.97" cy="129" fill="#FEFECE" filter="url(#fppxgmf)" rx="8" ry="8" style="stroke: #A80036; stroke-width: 2.0;"/><text fill="#000000" font-family="sans-serif" font-size="14" lengthAdjust="spacingAndGlyphs" textLength="116" x="1251.97" y="150.9951">LastDataProvider</text><path d="M687.226,27.435 C521.012,32.021 35.5014,47.468 12.4665,72 C-5.2125,90.828 16.1888,105.8056 44.6668,116.5235 " fill="none" style="stroke: #A80036; stroke-width: 1.0;"/><polygon fill="none" points="47.2793,110.0148,64.0632,122.9492,42.8766,123.3045,47.2793,110.0148" style="stroke: #A80036; stroke-width: 1.0;"/><text fill="#000000" font-family="sans-serif" font-size="13" lengthAdjust="spacingAndGlyphs" textLength="171" x="13.4665" y="85.0669">addData($initialDataArray)</text><path d="M667.208,29.725 C549.737,36.103 328.382,50.536 252.466,72 C214.219,82.8138 173.664,104.6582 148.218,119.7981 " fill="none" style="stroke: #A80036; stroke-width: 1.0;"/><polygon fill="none" points="666.847,22.735,687.19,28.664,667.59,36.715,666.847,22.735" style="stroke: #A80036; stroke-width: 1.0;"/><text fill="#000000" font-family="sans-serif" font-size="13" lengthAdjust="spacingAndGlyphs" textLength="128" x="253.466" y="85.0669">$modifiedDataArray</text><path d="M687.439,29.414 C594.883,35.722 416.249,50.547 397.466,72 C380.177,91.7476 400.328,106.3682 428.831,116.61 " fill="none" style="stroke: #A80036; stroke-width: 1.0;"/><polygon fill="none" points="430.921,109.9292,447.925,122.5726,426.748,123.2928,430.921,109.9292" style="stroke: #A80036; stroke-width: 1.0;"/><text fill="#000000" font-family="sans-serif" font-size="13" lengthAdjust="spacingAndGlyphs" textLength="193" x="398.466" y="85.0669">addData($modifiedDataArray)</text><path d="M682.986,49.726 C666.766,56.5679 649.304,64.2793 633.466,72 C602.659,87.0184 568.472,106.4097 545.443,119.8934 " fill="none" style="stroke: #A80036; stroke-width: 1.0;"/><polygon fill="none" points="680.466,43.194,701.622,42.009,685.822,56.1285,680.466,43.194" style="stroke: #A80036; stroke-width: 1.0;"/><text fill="#000000" font-family="sans-serif" font-size="13" lengthAdjust="spacingAndGlyphs" textLength="169" x="634.466" y="85.0669">$furtherModifiedDataArray</text><path d="M764.843,42.242 C785.101,56.3661 816.17,76.6115 845.466,90 C885.249,108.1805 934.184,121.82 964.607,129.3548 " fill="none" style="stroke: #A80036; stroke-width: 1.0;"/><polygon fill="none" points="966.307,122.5637,984.159,133.9802,963.084,136.1876,966.307,122.5637" style="stroke: #A80036; stroke-width: 1.0;"/><text fill="#000000" font-family="sans-serif" font-size="13" lengthAdjust="spacingAndGlyphs" textLength="247" x="846.466" y="85.0669">addData($furtherMmodifiedDataArray)</text><path d="M817.615,30.462 C916.826,37.133 1081.17,51.19 1099.47,72 C1130.13,106.8683 1033.59,128.4588 1002.667,134.3546 " fill="none" style="stroke: #A80036; stroke-width: 1.0;"/><polygon fill="none" points="817.011,37.438,797.509,29.151,817.922,23.468,817.011,37.438" style="stroke: #A80036; stroke-width: 1.0;"/><text fill="#000000" font-family="sans-serif" font-size="13" lengthAdjust="spacingAndGlyphs" textLength="71" x="1106.47" y="85.0669">$dataArray</text><path d="M797.54,25.072 C882.928,25.093 1051.58,30.995 1187.47,72 C1215.87,80.5717 1245.4,95.8648 1268.29,109.3522 " fill="none" style="stroke: #A80036; stroke-width: 1.0;"/><polygon fill="none" points="1272.02,103.4317,1285.42,119.8436,1264.71,115.3723,1272.02,103.4317" style="stroke: #A80036; stroke-width: 1.0;"/><text fill="#000000" font-family="sans-serif" font-size="13" lengthAdjust="spacingAndGlyphs" textLength="71" x="1231.47" y="85.0669">$dataArray</text><path d="M817.745,26.522 C964.97,28.328 1279.59,36.363 1312.47,72 C1324.16,84.6722 1320.59,105.4611 1315.96,119.8923 " fill="none" style="stroke: #A80036; stroke-width: 1.0;"/><polygon fill="none" points="817.632,33.521,797.71,26.302,817.786,19.522,817.632,33.521" style="stroke: #A80036; stroke-width: 1.0;"/><text fill="#000000" font-family="sans-serif" font-size="13" lengthAdjust="spacingAndGlyphs" textLength="71" x="1320.47" y="85.0669">$dataArray</text></g></svg>