<?xml version="1.0" encoding="UTF-8" standalone="no"?><svg xmlns="http://www.w3.org/2000/svg" xmlns:xlink="http://www.w3.org/1999/xlink" contentScriptType="application/ecmascript" contentStyleType="text/css" height="421px" preserveAspectRatio="none" style="width:916px;height:421px;" version="1.1" viewBox="0 0 916 421" width="916px" zoomAndPan="magnify"><defs><filter height="300%" id="fs7o3f8" width="300%" x="-1" y="-1"><feGaussianBlur result="blurOut" stdDeviation="2.0"/><feColorMatrix in="blurOut" result="blurOut2" type="matrix" values="0 0 0 0 0 0 0 0 0 0 0 0 0 0 0 0 0 0 .4 0"/><feOffset dx="4.0" dy="4.0" in="blurOut2" result="blurOut3"/><feBlend in="SourceGraphic" in2="blurOut3" mode="normal"/></filter></defs><g><path d="M53,39 L52.0441,39 L53.1399,49.0711 L53.723,59.1421 L53.091,69.2132 L53.7986,79.2842 L52.9532,89.3553 L52.1675,99.4264 L52.2057,109.4974 L53.6365,119.5685 L53.5699,129.6395 L53.7728,139.7106 L52.5991,149.7817 L53.7045,159.8527 L52.7952,169.9238 L52.4126,179.9948 L52.2831,190.0659 L52.5125,200.1369 L52.8447,210.208 L53.0526,220.2791 L53.6558,230.3501 L53.5644,240.4212 L52.8394,250.4922 L52.67,260.5633 L52.246,270.6344 L52.7794,280.7054 L52.3492,290.7765 L53.6738,300.8475 L53.2907,310.9186 L52.5445,320.9897 L53.7509,331.0607 L52.9059,341.1318 L52.1479,351.2028 L53.8965,361.2739 L52.6924,371.345 L53,381.416 " fill="none" style="stroke: #C85D0A; stroke-width: 1.0; stroke-dasharray: 5.0,5.0;"/><path d="M293,39 L292.066,39 L292.9164,49.0711 L293.6858,59.1421 L292.6589,69.2132 L292.8402,79.2842 L292.1859,89.3553 L292.6078,99.4264 L293.5376,109.4974 L292.1501,119.5685 L293.5792,129.6395 L292.715,139.7106 L293.1581,149.7817 L293.751,159.8527 L293.6793,169.9238 L293.4332,179.9948 L293.0605,190.0659 L293.9208,200.1369 L293.0466,210.208 L293.2065,220.2791 L293.1987,230.3501 L293.1681,240.4212 L293.335,250.4922 L293.68,260.5633 L292.9348,270.6344 L292.773,280.7054 L293.0067,290.7765 L292.8083,300.8475 L293.5159,310.9186 L292.5414,320.9897 L293.8225,331.0607 L292.4346,341.1318 L292.2418,351.2028 L292.4084,361.2739 L292.1499,371.345 L293,381.416 " fill="none" style="stroke: #C85D0A; stroke-width: 1.0; stroke-dasharray: 5.0,5.0;"/><path d="M479,39 L478.7404,39 L478.7459,49.0711 L479.4708,59.1421 L479.1828,69.2132 L478.4967,79.2842 L479.2048,89.3553 L479.6596,99.4264 L478.41,109.4974 L478.2792,119.5685 L478.8773,129.6395 L479.5817,139.7106 L479.0934,149.7817 L479.7156,159.8527 L479.1451,169.9238 L479.0649,179.9948 L479.1353,190.0659 L479.4369,200.1369 L478.1861,210.208 L478.6348,220.2791 L479.5146,230.3501 L479.6907,240.4212 L478.5579,250.4922 L478.5329,260.5633 L479.4644,270.6344 L478.5475,280.7054 L478.303,290.7765 L478.9533,300.8475 L478.7383,310.9186 L479.296,320.9897 L478.7083,331.0607 L478.9305,341.1318 L478.6801,351.2028 L478.9703,361.2739 L479.5616,371.345 L479,381.416 " fill="none" style="stroke: #C85D0A; stroke-width: 1.0; stroke-dasharray: 5.0,5.0;"/><path d="M620,39 L620.7559,39 L620.3645,49.0711 L620.9907,59.1421 L620.6433,69.2132 L620.9307,79.2842 L620.8141,89.3553 L619.6229,99.4264 L619.2752,109.4974 L619.4794,119.5685 L619.2289,129.6395 L620.3757,139.7106 L620.021,149.7817 L620.9577,159.8527 L620.2774,169.9238 L620.5518,179.9948 L620.0914,190.0659 L620.6784,200.1369 L620.8031,210.208 L619.9582,220.2791 L620.6528,230.3501 L620.5624,240.4212 L619.7878,250.4922 L619.2551,260.5633 L620.0729,270.6344 L620.5875,280.7054 L619.0938,290.7765 L620.5837,300.8475 L620.159,310.9186 L620.0673,320.9897 L620.3702,331.0607 L619.9653,341.1318 L620.6519,351.2028 L620.9317,361.2739 L620.5618,371.345 L620,381.416 " fill="none" style="stroke: #C85D0A; stroke-width: 1.0; stroke-dasharray: 5.0,5.0;"/><path d="M846,39 L846.4982,39 L845.6355,49.0711 L845.8145,59.1421 L845.7009,69.2132 L846.6055,79.2842 L845.1082,89.3553 L845.0711,99.4264 L846.0858,109.4974 L846.4998,119.5685 L845.7294,129.6395 L846.8536,139.7106 L845.5713,149.7817 L846.6272,159.8527 L846.7181,169.9238 L845.0664,179.9948 L845.4934,190.0659 L846.1425,200.1369 L846.0234,210.208 L845.4052,220.2791 L845.7433,230.3501 L845.4438,240.4212 L846.2231,250.4922 L845.7496,260.5633 L845.6845,270.6344 L846.4507,280.7054 L845.1263,290.7765 L845.937,300.8475 L845.9695,310.9186 L845.6682,320.9897 L846.7667,331.0607 L845.3882,341.1318 L846.8676,351.2028 L846.1078,361.2739 L846.368,371.345 L846,381.416 " fill="none" style="stroke: #C85D0A; stroke-width: 1.0; stroke-dasharray: 5.0,5.0;"/><polygon fill="#F18532" filter="url(#fs7o3f8)" points="8,3,8,2.3896,17.6667,2.59,27.3333,3.6502,37,2.9609,46.6667,3.0198,56.3333,3.7019,66,2.6839,75.6667,2.6237,85.3333,3.7247,95,3,95.1302,3,94.7601,9.2,95.0348,15.4,95.0227,21.6,94.8758,27.8,95,34,95,33.3443,85.3333,34.2155,75.6667,33.3202,66,34.5831,56.3333,34.4068,46.6667,33.7895,37,33.5092,27.3333,34.4701,17.6667,34.1377,8,34,7.8565,34,7.8171,27.8,7.8816,21.6,8.1616,15.4,7.8416,9.2,8,3" style="stroke: #C85D0A; stroke-width: 1.5;"/><text fill="#FFFFFF" font-family="Helvetica" font-size="17" lengthAdjust="spacingAndGlyphs" textLength="73" x="15" y="23.0903">Controller</text><polygon fill="#F18532" filter="url(#fs7o3f8)" points="8,380.416,8,380.2551,17.6667,380.9684,27.3333,379.7015,37,380.1347,46.6667,380.6018,56.3333,380.2028,66,380.7717,75.6667,379.7122,85.3333,380.0765,95,380.416,94.9492,380.416,94.8351,386.616,94.8277,392.816,95.0366,399.016,95.049,405.216,95,411.416,95,411.0352,85.3333,412.131,75.6667,411.7405,66,410.8342,56.3333,410.8316,46.6667,412.03,37,410.8162,27.3333,411.8313,17.6667,411.6355,8,411.416,8.1815,411.416,7.7804,405.216,7.8959,399.016,8.1966,392.816,8.1189,386.616,8,380.416" style="stroke: #C85D0A; stroke-width: 1.5;"/><text fill="#FFFFFF" font-family="Helvetica" font-size="17" lengthAdjust="spacingAndGlyphs" textLength="73" x="15" y="400.5063">Controller</text><polygon fill="#F18532" filter="url(#fs7o3f8)" points="214,3,214,2.8711,223.6875,3.2242,233.375,2.8979,243.0625,2.7199,252.75,2.7509,262.4375,3.4384,272.125,3.4817,281.8125,2.6109,291.5,3.2481,301.1875,2.7601,310.875,2.3006,320.5625,3.5951,330.25,3.2695,339.9375,2.5551,349.625,3.0647,359.3125,2.9807,369,3,369.0149,3,369.2243,9.2,368.8818,15.4,368.7601,21.6,368.8822,27.8,369,34,369,34.6538,359.3125,34.6606,349.625,34.1436,339.9375,33.5437,330.25,33.9923,320.5625,34.4836,310.875,34.5529,301.1875,34.3032,291.5,34.3653,281.8125,34.0492,272.125,34.0851,262.4375,33.5123,252.75,33.3769,243.0625,34.7136,233.375,33.9588,223.6875,34.4351,214,34,214.2222,34,214.1939,27.8,214.124,21.6,213.8,15.4,214.2184,9.2,214,3" style="stroke: #C85D0A; stroke-width: 1.5;"/><text fill="#FFFFFF" font-family="Helvetica" font-size="17" lengthAdjust="spacingAndGlyphs" textLength="141" x="221" y="23.0903">FormDataCompiler</text><polygon fill="#F18532" filter="url(#fs7o3f8)" points="214,380.416,214,380.0462,223.6875,380.7501,233.375,379.8165,243.0625,380.1908,252.75,380.0584,262.4375,380.181,272.125,380.3134,281.8125,380.6526,291.5,380.833,301.1875,381.0288,310.875,380.743,320.5625,380.6667,330.25,380.3469,339.9375,380.5085,349.625,380.7762,359.3125,381.0117,369,380.416,369.0389,380.416,368.8019,386.616,368.8353,392.816,369.1915,399.016,369.0531,405.216,369,411.416,369,411.353,359.3125,412.1361,349.625,411.0809,339.9375,412.1509,330.25,411.3766,320.5625,411.1776,310.875,412.0061,301.1875,411.3004,291.5,411.7208,281.8125,412.0565,272.125,411.0007,262.4375,410.6802,252.75,411.1592,243.0625,412.0259,233.375,411.2503,223.6875,410.7397,214,411.416,214.0269,411.416,214.0964,405.216,213.7988,399.016,213.8441,392.816,213.9985,386.616,214,380.416" style="stroke: #C85D0A; stroke-width: 1.5;"/><text fill="#FFFFFF" font-family="Helvetica" font-size="17" lengthAdjust="spacingAndGlyphs" textLength="141" x="221" y="400.5063">FormDataCompiler</text><polygon fill="#F18532" filter="url(#fs7o3f8)" points="406,3,406,3.1469,416.2143,3.3926,426.4286,3.1217,436.6429,3.6889,446.8571,3.7333,457.0714,3.3784,467.2857,2.912,477.5,2.7621,487.7143,2.7311,497.9286,3.0506,508.1429,3.6658,518.3571,3.0124,528.5714,3.0808,538.7857,2.8607,549,3,549.1825,3,548.9981,9.2,549.2161,15.4,549.0441,21.6,549.0567,27.8,549,34,549,34.2396,538.7857,34.6227,528.5714,33.9676,518.3571,33.8822,508.1429,33.4671,497.9286,33.5744,487.7143,33.5445,477.5,33.8745,467.2857,33.9431,457.0714,33.8521,446.8571,34.3722,436.6429,33.3967,426.4286,33.8724,416.2143,33.7759,406,34,406.0559,34,405.9428,27.8,406.1029,21.6,405.7869,15.4,405.7558,9.2,406,3" style="stroke: #C85D0A; stroke-width: 1.5;"/><text fill="#FFFFFF" font-family="Helvetica" font-size="17" lengthAdjust="spacingAndGlyphs" textLength="129" x="413" y="23.0903">aFormDataGroup</text><polygon fill="#F18532" filter="url(#fs7o3f8)" points="406,380.416,406,381.0037,416.2143,379.9898,426.4286,381.027,436.6429,380.7789,446.8571,380.2711,457.0714,379.9841,467.2857,381.1588,477.5,379.7972,487.7143,380.7645,497.9286,380.5496,508.1429,379.938,518.3571,379.9028,528.5714,379.8358,538.7857,380.7218,549,380.416,548.7517,380.416,549.1651,386.616,548.8444,392.816,548.9502,399.016,548.9445,405.216,549,411.416,549,411.3469,538.7857,411.158,528.5714,411.357,518.3571,412.0281,508.1429,411.4586,497.9286,411.5289,487.7143,412.0825,477.5,410.7112,467.2857,411.7464,457.0714,412.0439,446.8571,411.7237,436.6429,411.8342,426.4286,411.9072,416.2143,411.8736,406,411.416,406.1438,411.416,405.9781,405.216,406.069,399.016,406.2055,392.816,405.9603,386.616,406,380.416" style="stroke: #C85D0A; stroke-width: 1.5;"/><text fill="#FFFFFF" font-family="Helvetica" font-size="17" lengthAdjust="spacingAndGlyphs" textLength="129" x="413" y="400.5063">aFormDataGroup</text><polygon fill="#F18532" filter="url(#fs7o3f8)" points="563,3,563,3.3621,573,2.3465,583,2.4005,593,3.6361,603,2.9056,613,2.941,623,2.6589,633,2.3253,643,2.9281,653,3.2226,663,2.8704,673,3,672.7831,3,672.8858,9.2,673.1963,15.4,673.0599,21.6,672.8873,27.8,673,34,673,33.498,663,34.5655,653,33.4976,643,34.2212,633,34.347,623,34.1893,613,34.4867,603,34.4794,593,33.3495,583,33.7338,573,34.2293,563,34,563.1798,34,563.1919,27.8,562.7745,21.6,562.8767,15.4,563.2456,9.2,563,3" style="stroke: #C85D0A; stroke-width: 1.5;"/><text fill="#FFFFFF" font-family="Helvetica" font-size="17" lengthAdjust="spacingAndGlyphs" textLength="96" x="570" y="23.0903">NodeFactory</text><polygon fill="#F18532" filter="url(#fs7o3f8)" points="563,380.416,563,380.0897,573,380.6804,583,380.0258,593,380.8636,603,380.5452,613,380.2433,623,379.8429,633,380.2498,643,380.7833,653,380.6975,663,379.9275,673,380.416,673.0217,380.416,672.8466,386.616,672.8886,392.816,672.8326,399.016,673.2479,405.216,673,411.416,673,411.8905,663,411.5417,653,411.6386,643,411.783,633,411.8242,623,411.5349,613,411.7071,603,411.5536,593,411.1968,583,410.8272,573,411.3426,563,411.416,562.7708,411.416,563.184,405.216,563.1807,399.016,563.0604,392.816,562.8483,386.616,563,380.416" style="stroke: #C85D0A; stroke-width: 1.5;"/><text fill="#FFFFFF" font-family="Helvetica" font-size="17" lengthAdjust="spacingAndGlyphs" textLength="96" x="570" y="400.5063">NodeFactory</text><polygon fill="#F18532" filter="url(#fs7o3f8)" points="781,3,781,3.1863,790.6923,2.339,800.3846,2.73,810.0769,2.8315,819.7692,3.1661,829.4615,3.5967,839.1538,2.3714,848.8462,3.725,858.5385,2.6096,868.2308,3.7227,877.9231,3.523,887.6154,2.407,897.3077,3.3146,907,3,906.8217,3,907.1468,9.2,907.1835,15.4,906.7667,21.6,906.9351,27.8,907,34,907,34.0805,897.3077,33.6139,887.6154,34.1892,877.9231,34.6968,868.2308,33.5048,858.5385,34.3236,848.8462,34.0604,839.1538,34.075,829.4615,33.9365,819.7692,34.1002,810.0769,34.701,800.3846,33.4492,790.6923,34.596,781,34,781.1916,34,781.0015,27.8,780.8018,21.6,780.8969,15.4,780.8745,9.2,781,3" style="stroke: #C85D0A; stroke-width: 1.5;"/><text fill="#FFFFFF" font-family="Helvetica" font-size="17" lengthAdjust="spacingAndGlyphs" textLength="112" x="788" y="23.0903">EntryContainer</text><polygon fill="#F18532" filter="url(#fs7o3f8)" points="781,380.416,781,381.011,790.6923,380.9351,800.3846,380.3837,810.0769,380.4369,819.7692,380.5217,829.4615,380.3967,839.1538,379.9468,848.8462,379.7931,858.5385,379.8164,868.2308,380.0954,877.9231,381.0988,887.6154,380.8909,897.3077,379.8275,907,380.416,906.8606,380.416,906.9588,386.616,907.156,392.816,907.0527,399.016,906.9887,405.216,907,411.416,907,411.8665,897.3077,411.0549,887.6154,411.8391,877.9231,411.856,868.2308,411.5978,858.5385,411.9505,848.8462,411.4038,839.1538,412.0976,829.4615,411.7229,819.7692,411.239,810.0769,411.1891,800.3846,410.904,790.6923,411.4673,781,411.416,781.0369,411.416,780.8952,405.216,781.0025,399.016,781.1208,392.816,781.089,386.616,781,380.416" style="stroke: #C85D0A; stroke-width: 1.5;"/><text fill="#FFFFFF" font-family="Helvetica" font-size="17" lengthAdjust="spacingAndGlyphs" textLength="112" x="788" y="400.5063">EntryContainer</text><polygon fill="#C85D0A" points="281.5,66,281.5553,66.1383,283.4955,66.7888,285.4324,67.431,287.5595,68.5486,289.5206,69.2515,291.5,70,291.5922,70.2305,289.4332,70.6329,287.5449,71.7123,285.5532,72.5331,283.4936,73.184,281.5,74,281.6045,74.1045,282.2702,73.1702,283.0269,72.3269,283.7404,71.4404,284.751,70.851,285.5,70,285.5478,70.0478,284.5302,69.0302,283.9088,68.4088,283.1987,67.6987,282.4185,66.9185,281.5,66" style="stroke: #C85D0A; stroke-width: 1.0;"/><path d="M53.5,70 L53.5,69.2459 L63.6739,69.1272 L73.8478,69.385 L84.0217,69.3315 L94.1957,70.9991 L104.3696,69.9804 L114.5435,69.439 L124.7174,69.3817 L134.8913,70.8145 L145.0652,70.7582 L155.2391,69.7913 L165.413,70.069 L175.587,69.6228 L185.7609,70.3603 L195.9348,69.8209 L206.1087,69.681 L216.2826,69.9012 L226.4565,69.0973 L236.6304,69.0883 L246.8043,70.0885 L256.9783,69.7293 L267.1522,70.2139 L277.3261,69.046 L287.5,70 " fill="none" style="stroke: #C85D0A; stroke-width: 1.0;"/><text fill="#000000" font-family="sans-serif" font-size="13" lengthAdjust="spacingAndGlyphs" textLength="164" x="60.5" y="65.5684">Initialize aFormDataGroup</text><polygon fill="#C85D0A" points="467.5,95.3105,467.5347,95.3972,469.542,96.2154,471.5033,96.9189,473.5233,97.7688,475.4671,98.4284,477.5,99.3105,477.4544,99.1966,475.4989,100.1078,473.5196,100.9595,471.5923,101.9413,469.4598,102.4099,467.5,103.3105,467.396,103.2066,468.329,102.5395,469.0151,101.6256,469.7816,100.7922,470.695,100.1055,471.5,99.3105,471.4891,99.2997,470.6359,98.4465,469.9667,97.7772,469.1887,96.9992,468.4022,96.2127,467.5,95.3105" style="stroke: #C85D0A; stroke-width: 1.0;"/><path d="M293.5,99.3105 L293.5,99.5139 L303.5,99.2711 L313.5,98.68 L323.5,99.9474 L333.5,99.9269 L343.5,99.3825 L353.5,99.1853 L363.5,99.2827 L373.5,100.1353 L383.5,99.3514 L393.5,100.1223 L403.5,99.7607 L413.5,98.4206 L423.5,98.964 L433.5,98.433 L443.5,99.5851 L453.5,98.9926 L463.5,99.4586 L473.5,99.3105 " fill="none" style="stroke: #C85D0A; stroke-width: 1.0;"/><text fill="#000000" font-family="sans-serif" font-size="13" lengthAdjust="spacingAndGlyphs" textLength="140" x="300.5" y="94.8789">Prepare data providers</text><polygon fill="#C85D0A" points="304.5,124.6211,304.5525,124.7523,302.4647,125.3328,300.4482,126.0916,298.4549,126.9084,296.4531,127.7039,294.5,128.6211,294.4919,128.6009,296.4815,129.3748,298.5261,130.2865,300.5206,131.0727,302.4499,131.6958,304.5,132.6211,304.3478,132.4689,303.7741,131.8951,302.8935,131.0146,302.126,130.2471,301.3718,129.4929,300.5,128.6211,300.3426,128.4637,301.1484,127.6695,302.041,126.9621,302.974,126.2951,303.872,125.5931,304.5,124.6211" style="stroke: #C85D0A; stroke-width: 1.0;"/><path d="M298.5,128.6211 L298.5,129.3525 L308.5,127.7705 L318.5,129.3354 L328.5,129.4343 L338.5,129.0402 L348.5,127.778 L358.5,128.8763 L368.5,128.7959 L378.5,128.3463 L388.5,128.4147 L398.5,128.5561 L408.5,129.4797 L418.5,129.2623 L428.5,127.7916 L438.5,128.2921 L448.5,127.743 L458.5,127.6958 L468.5,129.2297 L478.5,128.6211 " fill="none" style="stroke: #C85D0A; stroke-width: 1.0;"/><text fill="#000000" font-family="sans-serif" font-size="13" lengthAdjust="spacingAndGlyphs" textLength="104" x="310.5" y="124.1895">Explode on error</text><polygon fill="#C85D0A" points="281.5,153.9316,281.5824,154.1376,283.4575,154.6254,285.4286,155.3531,287.5764,156.5226,289.5374,157.225,291.5,157.9316,291.4511,157.8093,289.5112,158.7597,287.5803,159.7325,285.512,160.3616,283.4663,161.0474,281.5,161.9316,281.6103,162.0419,282.4474,161.2791,283.2039,160.4356,283.8541,159.4857,284.8704,158.902,285.5,157.9316,285.5445,157.9761,284.8752,157.3069,283.896,156.3276,283.112,155.5436,282.4137,154.8453,281.5,153.9316" style="stroke: #C85D0A; stroke-width: 1.0;"/><path d="M53.5,157.9316 L53.5,158.5606 L63.6739,157.9339 L73.8478,158.0139 L84.0217,157.0308 L94.1957,157.3566 L104.3696,158.2535 L114.5435,157.2464 L124.7174,157.5446 L134.8913,157.8006 L145.0652,157.0561 L155.2391,156.9713 L165.413,158.5528 L175.587,157.9839 L185.7609,158.2607 L195.9348,157.9091 L206.1087,158.4727 L216.2826,158.1727 L226.4565,158.0026 L236.6304,158.7407 L246.8043,158.057 L256.9783,157.2536 L267.1522,158.9079 L277.3261,157.7559 L287.5,157.9316 " fill="none" style="stroke: #C85D0A; stroke-width: 1.0;"/><text fill="#000000" font-family="sans-serif" font-size="13" lengthAdjust="spacingAndGlyphs" textLength="216" x="60.5" y="153.5">Give initialized data, call compile()</text><polygon fill="#C85D0A" points="467.5,183.2422,467.4246,183.0537,469.5495,184.1659,471.5366,184.9338,473.4753,185.5804,475.4683,186.363,477.5,187.2422,477.5158,187.2816,475.5247,188.1039,473.5731,189.025,471.41,189.4172,469.5386,190.5386,467.5,191.2422,467.5868,191.3289,468.4148,190.557,469.1086,189.6507,469.9141,188.8562,470.7973,188.1395,471.5,187.2422,471.6693,187.4114,470.6922,186.4344,470.0566,185.7988,469.0473,184.7895,468.3342,184.0763,467.5,183.2422" style="stroke: #C85D0A; stroke-width: 1.0;"/><path d="M293.5,187.2422 L293.5,187.0403 L303.5,187.1861 L313.5,187.5539 L323.5,187.5755 L333.5,186.3417 L343.5,186.5153 L353.5,187.0992 L363.5,188.0604 L373.5,187.0434 L383.5,187.8678 L393.5,187.9743 L403.5,186.8525 L413.5,186.7898 L423.5,187.6941 L433.5,186.5761 L443.5,186.7844 L453.5,187.5738 L463.5,186.8559 L473.5,187.2422 " fill="none" style="stroke: #C85D0A; stroke-width: 1.0;"/><text fill="#000000" font-family="sans-serif" font-size="13" lengthAdjust="spacingAndGlyphs" textLength="157" x="300.5" y="182.8105">Compile single providers</text><polygon fill="#C85D0A" points="304.5,212.5527,304.583,212.7603,302.5715,213.5315,300.5101,214.178,298.4459,214.8174,296.5212,215.8057,294.5,216.5527,294.5883,216.7734,296.5253,217.4161,298.4699,218.0776,300.5875,219.1715,302.4769,219.6951,304.5,220.5527,304.653,220.7058,303.6759,219.7286,303.0269,219.0796,302.0078,218.0605,301.3085,217.3613,300.5,216.5527,300.6604,216.7132,301.3076,215.7604,302.2723,215.125,303.0276,214.2803,303.8636,213.5164,304.5,212.5527" style="stroke: #C85D0A; stroke-width: 1.0;"/><path d="M298.5,216.5527 L298.5,216.7571 L308.5,216.0459 L318.5,215.7622 L328.5,215.6184 L338.5,216.0358 L348.5,217.5426 L358.5,217.202 L368.5,216.2668 L378.5,216.8756 L388.5,215.7583 L398.5,215.7006 L408.5,217.1563 L418.5,217.2874 L428.5,216.5818 L438.5,216.4061 L448.5,217.3648 L458.5,216.9546 L468.5,216.4802 L478.5,216.5527 " fill="none" style="stroke: #C85D0A; stroke-width: 1.0;"/><text fill="#000000" font-family="sans-serif" font-size="13" lengthAdjust="spacingAndGlyphs" textLength="162" x="310.5" y="212.1211">Return updated data array</text><polygon fill="#C85D0A" points="64.5,241.8633,64.5825,242.0695,62.5267,242.7299,60.4844,243.4242,58.4747,244.2,56.4592,244.9612,54.5,245.8633,54.4414,245.7167,56.4499,246.5381,58.4724,247.3943,60.4467,248.1301,62.5744,249.2494,64.5,249.8633,64.6566,250.0199,63.8403,249.2036,63.0137,248.3769,62.0897,247.4529,61.3583,246.7216,60.5,245.8633,60.4706,245.8339,61.2235,244.9867,61.9666,244.1299,62.7379,243.3012,63.6823,242.6455,64.5,241.8633" style="stroke: #C85D0A; stroke-width: 1.0;"/><path d="M58.5,245.8633 L58.5,246.6562 L68.6739,246.6028 L78.8478,246.8465 L89.0217,246.1918 L99.1957,245.5981 L109.3696,246.7693 L119.5435,246.8594 L129.7174,246.4268 L139.8913,246.3146 L150.0652,246.2732 L160.2391,245.5254 L170.413,245.6512 L180.587,245.5665 L190.7609,246.0838 L200.9348,245.4065 L211.1087,246.1635 L221.2826,246.0712 L231.4565,245.8837 L241.6304,245.7457 L251.8043,246.6254 L261.9783,245.5785 L272.1522,246.1812 L282.3261,246.3026 L292.5,245.8633 " fill="none" style="stroke: #C85D0A; stroke-width: 1.0;"/><text fill="#000000" font-family="sans-serif" font-size="13" lengthAdjust="spacingAndGlyphs" textLength="132" x="70.5" y="241.4316">Return full data arary</text><polygon fill="#C85D0A" points="608,271.1738,607.9825,271.1302,609.989,271.9462,612.0357,272.8632,614.0844,273.7849,615.9159,274.1636,618,275.1738,617.9954,275.1624,616.0037,275.9831,614.0433,276.882,611.9529,277.4561,610.0918,278.6033,608,279.1738,608.0673,279.2412,608.9385,278.5124,609.4726,277.4465,610.5421,276.9159,611.3487,276.1226,612,275.1738,611.8942,275.068,611.2035,274.3774,610.3682,273.542,609.495,272.6689,608.8864,272.0602,608,271.1738" style="stroke: #C85D0A; stroke-width: 1.0;"/><path d="M53.5,275.1738 L53.5,274.5309 L63.5089,275.1012 L73.5179,274.6396 L83.5268,276.1185 L93.5357,274.4812 L103.5446,274.9961 L113.5536,275.7981 L123.5625,274.5151 L133.5714,275.5401 L143.5804,274.6865 L153.5893,274.9717 L163.5982,274.6432 L173.6071,274.7651 L183.6161,274.6824 L193.625,274.3212 L203.6339,274.3668 L213.6429,276.0571 L223.6518,275.9302 L233.6607,275.9625 L243.6696,276.1202 L253.6786,275.0988 L263.6875,274.7768 L273.6964,275.9776 L283.7054,275.7043 L293.7143,275.8394 L303.7232,275.1572 L313.7321,276.0265 L323.7411,275.0395 L333.75,276.0277 L343.7589,275.8035 L353.7679,275.8132 L363.7768,274.23 L373.7857,276.1001 L383.7946,275.5557 L393.8036,275.8098 L403.8125,274.6727 L413.8214,274.7191 L423.8304,274.8333 L433.8393,274.9753 L443.8482,276.0131 L453.8571,275.4366 L463.8661,275.9869 L473.875,274.7264 L483.8839,275.508 L493.8929,274.3203 L503.9018,275.5974 L513.9107,276.1273 L523.9196,274.7941 L533.9286,275.9358 L543.9375,275.831 L553.9464,276.1628 L563.9554,274.1971 L573.9643,274.8166 L583.9732,275.6795 L593.9821,275.0414 L603.9911,274.5312 L614,275.1738 " fill="none" style="stroke: #C85D0A; stroke-width: 1.0;"/><text fill="#000000" font-family="sans-serif" font-size="13" lengthAdjust="spacingAndGlyphs" textLength="138" x="60.5" y="270.7422">Receive full data array</text><polygon fill="#C85D0A" points="834,300.4844,834.0284,300.5554,835.9215,301.0882,838.0533,302.2175,839.9696,302.8083,842.0921,303.9147,844,304.4844,844.0765,304.6757,842.0322,305.3648,840.0555,306.2232,838.056,307.0243,835.9264,307.5003,834,308.4844,833.896,308.3803,834.9444,307.8288,835.7426,307.027,836.4203,306.1046,837.0445,305.1288,838,304.4844,838.1351,304.6195,837.1933,303.6777,836.2395,302.7239,835.5435,302.0279,834.9614,301.4457,834,300.4844" style="stroke: #C85D0A; stroke-width: 1.0;"/><path d="M620,304.4844 L620,304.8415 L630,305.1059 L640,305.3509 L650,304.4201 L660,303.8299 L670,303.5475 L680,303.9742 L690,305.1675 L700,304.654 L710,305.2004 L720,303.4909 L730,303.7006 L740,304.1926 L750,303.7693 L760,303.8812 L770,304.6373 L780,304.4797 L790,304.1281 L800,303.9034 L810,304.7575 L820,304.6432 L830,303.5568 L840,304.4844 " fill="none" style="stroke: #C85D0A; stroke-width: 1.0;"/><text fill="#000000" font-family="sans-serif" font-size="13" lengthAdjust="spacingAndGlyphs" textLength="171" x="627" y="300.0527">Render self, sub containers</text><polygon fill="#C85D0A" points="631,329.7949,631.0449,329.9071,628.9732,330.5278,626.946,331.2599,624.9181,331.9901,622.9745,332.9313,621,333.7949,621.0121,333.8251,622.9964,334.586,625.0827,335.6017,626.943,336.0524,629.0031,337.0026,631,337.7949,631.1556,337.9505,630.1941,336.989,629.4521,336.247,628.742,335.5369,627.9594,334.7543,627,333.7949,627.0141,333.8091,627.6559,332.8509,628.4589,332.0539,629.4696,331.4645,630.1203,330.5153,631,329.7949" style="stroke: #C85D0A; stroke-width: 1.0;"/><path d="M625,333.7949 L625,334.4056 L635,334.6618 L645,333.8361 L655,334.5549 L665,334.3377 L675,334.6581 L685,334.5145 L695,332.9395 L705,333.9535 L715,333.3248 L725,334.1775 L735,333.6797 L745,334.7908 L755,334.5417 L765,333.0711 L775,333.8258 L785,334.2678 L795,333.1098 L805,334.2654 L815,334.6951 L825,333.5921 L835,334.1933 L845,333.7949 " fill="none" style="stroke: #C85D0A; stroke-width: 1.0;"/><text fill="#000000" font-family="sans-serif" font-size="13" lengthAdjust="spacingAndGlyphs" textLength="202" x="637" y="329.3633">Return result with HTML, CSS, JS</text><polygon fill="#C85D0A" points="64.5,359.1055,64.5521,359.2357,62.5431,360.0131,60.5462,360.821,58.5857,361.7196,56.449,362.178,54.5,363.1055,54.4971,363.0981,56.4263,363.7212,58.5417,364.8096,60.5329,365.5878,62.4316,366.1345,64.5,367.1055,64.6603,367.2657,63.5882,366.1937,62.8312,365.4367,61.9622,364.5677,61.4109,364.0164,60.5,363.1055,60.3695,362.975,61.3846,362.3901,61.9625,361.368,62.9942,360.7997,63.6951,359.9006,64.5,359.1055" style="stroke: #C85D0A; stroke-width: 1.0;"/><path d="M58.5,363.1055 L58.5,363.0318 L68.5089,364.1033 L78.5179,362.5972 L88.5268,363.4021 L98.5357,363.4905 L108.5446,362.1499 L118.5536,362.6606 L128.5625,363.4097 L138.5714,362.7405 L148.5804,363.6489 L158.5893,363.3906 L168.5982,362.1224 L178.6071,362.4533 L188.6161,363.1347 L198.625,362.6954 L208.6339,362.7489 L218.6429,363.4701 L228.6518,363.2076 L238.6607,363.7226 L248.6696,362.7924 L258.6786,363.6365 L268.6875,362.3108 L278.6964,363.4432 L288.7054,362.1708 L298.7143,363.9398 L308.7232,363.9999 L318.7321,363.8365 L328.7411,362.9934 L338.75,362.8117 L348.7589,363.2373 L358.7679,363.037 L368.7768,363.8306 L378.7857,362.7623 L388.7946,364.0265 L398.8036,363.459 L408.8125,363.1974 L418.8214,363.9994 L428.8304,363.1789 L438.8393,362.7422 L448.8482,363.5348 L458.8571,362.3677 L468.8661,363.1672 L478.875,363.387 L488.8839,362.2337 L498.8929,363.806 L508.9018,362.8678 L518.9107,362.1556 L528.9196,362.1867 L538.9286,362.5727 L548.9375,362.5337 L558.9464,362.7109 L568.9554,362.9843 L578.9643,363.7321 L588.9732,362.5626 L598.9821,362.552 L608.9911,363.1911 L619,363.1055 " fill="none" style="stroke: #C85D0A; stroke-width: 1.0;"/><text fill="#000000" font-family="sans-serif" font-size="13" lengthAdjust="spacingAndGlyphs" textLength="116" x="70.5" y="358.6738">Return result array</text></g></svg>