<?xml version="1.0" encoding="UTF-8" standalone="no"?><svg xmlns="http://www.w3.org/2000/svg" xmlns:xlink="http://www.w3.org/1999/xlink" contentScriptType="application/ecmascript" contentStyleType="text/css" height="947px" preserveAspectRatio="none" style="width:682px;height:947px;" version="1.1" viewBox="0 0 682 947" width="682px" zoomAndPan="magnify"><defs><filter height="300%" id="fc0zijw" width="300%" x="-1" y="-1"><feGaussianBlur result="blurOut" stdDeviation="2.0"/><feColorMatrix in="blurOut" result="blurOut2" type="matrix" values="0 0 0 0 0 0 0 0 0 0 0 0 0 0 0 0 0 0 .4 0"/><feOffset dx="4.0" dy="4.0" in="blurOut2" result="blurOut3"/><feBlend in="SourceGraphic" in2="blurOut3" mode="normal"/></filter></defs><g><!--class Controller--><rect fill="#FEFECE" filter="url(#fc0zijw)" height="48" style="stroke: #A80036; stroke-width: 1.5;" width="93" x="389.75" y="8"/><ellipse cx="404.75" cy="24" fill="#ADD1B2" rx="11" ry="11" style="stroke: #A80036; stroke-width: 1.0;"/><path d="M407.7188,29.6406 Q407.1406,29.9375 406.5,30.0859 Q405.8594,30.2344 405.1563,30.2344 Q402.6563,30.2344 401.3359,28.5859 Q400.0156,26.9375 400.0156,23.8125 Q400.0156,20.6875 401.3359,19.0313 Q402.6563,17.375 405.1563,17.375 Q405.8594,17.375 406.5078,17.5313 Q407.1563,17.6875 407.7188,17.9844 L407.7188,20.7031 Q407.0938,20.125 406.5,19.8516 Q405.9063,19.5781 405.2813,19.5781 Q403.9375,19.5781 403.25,20.6484 Q402.5625,21.7188 402.5625,23.8125 Q402.5625,25.9063 403.25,26.9766 Q403.9375,28.0469 405.2813,28.0469 Q405.9063,28.0469 406.5,27.7734 Q407.0938,27.5 407.7188,26.9219 L407.7188,29.6406 Z "/><text fill="#000000" font-family="sans-serif" font-size="12" lengthAdjust="spacingAndGlyphs" textLength="61" x="418.75" y="28.1543">Controller</text><line style="stroke: #A80036; stroke-width: 1.5;" x1="390.75" x2="481.75" y1="40" y2="40"/><line style="stroke: #A80036; stroke-width: 1.5;" x1="390.75" x2="481.75" y1="48" y2="48"/><!--class OuterWrapContainer--><rect fill="#FEFECE" filter="url(#fc0zijw)" height="48" style="stroke: #A80036; stroke-width: 1.5;" width="160" x="356" y="134"/><ellipse cx="371" cy="150" fill="#ADD1B2" rx="11" ry="11" style="stroke: #A80036; stroke-width: 1.0;"/><path d="M373.9688,155.6406 Q373.3906,155.9375 372.75,156.0859 Q372.1094,156.2344 371.4063,156.2344 Q368.9063,156.2344 367.5859,154.5859 Q366.2656,152.9375 366.2656,149.8125 Q366.2656,146.6875 367.5859,145.0313 Q368.9063,143.375 371.4063,143.375 Q372.1094,143.375 372.7578,143.5313 Q373.4063,143.6875 373.9688,143.9844 L373.9688,146.7031 Q373.3438,146.125 372.75,145.8516 Q372.1563,145.5781 371.5313,145.5781 Q370.1875,145.5781 369.5,146.6484 Q368.8125,147.7188 368.8125,149.8125 Q368.8125,151.9063 369.5,152.9766 Q370.1875,154.0469 371.5313,154.0469 Q372.1563,154.0469 372.75,153.7734 Q373.3438,153.5 373.9688,152.9219 L373.9688,155.6406 Z "/><text fill="#000000" font-family="sans-serif" font-size="12" lengthAdjust="spacingAndGlyphs" textLength="128" x="385" y="154.1543">OuterWrapContainer</text><line style="stroke: #A80036; stroke-width: 1.5;" x1="357" x2="515" y1="166" y2="166"/><line style="stroke: #A80036; stroke-width: 1.5;" x1="357" x2="515" y1="174" y2="174"/><!--class FullRecordContainer--><rect fill="#FEFECE" filter="url(#fc0zijw)" height="48" style="stroke: #A80036; stroke-width: 1.5;" width="158" x="357.5" y="260"/><ellipse cx="372.5" cy="276" fill="#ADD1B2" rx="11" ry="11" style="stroke: #A80036; stroke-width: 1.0;"/><path d="M375.4688,281.6406 Q374.8906,281.9375 374.25,282.0859 Q373.6094,282.2344 372.9063,282.2344 Q370.4063,282.2344 369.0859,280.5859 Q367.7656,278.9375 367.7656,275.8125 Q367.7656,272.6875 369.0859,271.0313 Q370.4063,269.375 372.9063,269.375 Q373.6094,269.375 374.2578,269.5313 Q374.9063,269.6875 375.4688,269.9844 L375.4688,272.7031 Q374.8438,272.125 374.25,271.8516 Q373.6563,271.5781 373.0313,271.5781 Q371.6875,271.5781 371,272.6484 Q370.3125,273.7188 370.3125,275.8125 Q370.3125,277.9063 371,278.9766 Q371.6875,280.0469 373.0313,280.0469 Q373.6563,280.0469 374.25,279.7734 Q374.8438,279.5 375.4688,278.9219 L375.4688,281.6406 Z "/><text fill="#000000" font-family="sans-serif" font-size="12" lengthAdjust="spacingAndGlyphs" textLength="126" x="386.5" y="280.1543">FullRecordContainer</text><line style="stroke: #A80036; stroke-width: 1.5;" x1="358.5" x2="514.5" y1="292" y2="292"/><line style="stroke: #A80036; stroke-width: 1.5;" x1="358.5" x2="514.5" y1="300" y2="300"/><!--class TabsContainer--><rect fill="#FEFECE" filter="url(#fc0zijw)" height="48" style="stroke: #A80036; stroke-width: 1.5;" width="123" x="374.75" y="386"/><ellipse cx="389.75" cy="402" fill="#ADD1B2" rx="11" ry="11" style="stroke: #A80036; stroke-width: 1.0;"/><path d="M392.7188,407.6406 Q392.1406,407.9375 391.5,408.0859 Q390.8594,408.2344 390.1563,408.2344 Q387.6563,408.2344 386.3359,406.5859 Q385.0156,404.9375 385.0156,401.8125 Q385.0156,398.6875 386.3359,397.0313 Q387.6563,395.375 390.1563,395.375 Q390.8594,395.375 391.5078,395.5313 Q392.1563,395.6875 392.7188,395.9844 L392.7188,398.7031 Q392.0938,398.125 391.5,397.8516 Q390.9063,397.5781 390.2813,397.5781 Q388.9375,397.5781 388.25,398.6484 Q387.5625,399.7188 387.5625,401.8125 Q387.5625,403.9063 388.25,404.9766 Q388.9375,406.0469 390.2813,406.0469 Q390.9063,406.0469 391.5,405.7734 Q392.0938,405.5 392.7188,404.9219 L392.7188,407.6406 Z "/><text fill="#000000" font-family="sans-serif" font-size="12" lengthAdjust="spacingAndGlyphs" textLength="91" x="403.75" y="406.1543">TabsContainer</text><line style="stroke: #A80036; stroke-width: 1.5;" x1="375.75" x2="496.75" y1="418" y2="418"/><line style="stroke: #A80036; stroke-width: 1.5;" x1="375.75" x2="496.75" y1="426" y2="426"/><!--class PaletteAndSingleContainer 1--><rect fill="#FEFECE" filter="url(#fc0zijw)" height="48" style="stroke: #A80036; stroke-width: 1.5;" width="212" x="185.5" y="512"/><ellipse cx="200.5" cy="528" fill="#ADD1B2" rx="11" ry="11" style="stroke: #A80036; stroke-width: 1.0;"/><path d="M203.4688,533.6406 Q202.8906,533.9375 202.25,534.0859 Q201.6094,534.2344 200.9063,534.2344 Q198.4063,534.2344 197.0859,532.5859 Q195.7656,530.9375 195.7656,527.8125 Q195.7656,524.6875 197.0859,523.0313 Q198.4063,521.375 200.9063,521.375 Q201.6094,521.375 202.2578,521.5313 Q202.9063,521.6875 203.4688,521.9844 L203.4688,524.7031 Q202.8438,524.125 202.25,523.8516 Q201.6563,523.5781 201.0313,523.5781 Q199.6875,523.5781 199,524.6484 Q198.3125,525.7188 198.3125,527.8125 Q198.3125,529.9063 199,530.9766 Q199.6875,532.0469 201.0313,532.0469 Q201.6563,532.0469 202.25,531.7734 Q202.8438,531.5 203.4688,530.9219 L203.4688,533.6406 Z "/><text fill="#000000" font-family="sans-serif" font-size="12" lengthAdjust="spacingAndGlyphs" textLength="180" x="214.5" y="532.1543">PaletteAndSingleContainer 1</text><line style="stroke: #A80036; stroke-width: 1.5;" x1="186.5" x2="396.5" y1="544" y2="544"/><line style="stroke: #A80036; stroke-width: 1.5;" x1="186.5" x2="396.5" y1="552" y2="552"/><!--class PaletteAndSingleContainer 2--><rect fill="#FEFECE" filter="url(#fc0zijw)" height="48" style="stroke: #A80036; stroke-width: 1.5;" width="212" x="432.5" y="512"/><ellipse cx="447.5" cy="528" fill="#ADD1B2" rx="11" ry="11" style="stroke: #A80036; stroke-width: 1.0;"/><path d="M450.4688,533.6406 Q449.8906,533.9375 449.25,534.0859 Q448.6094,534.2344 447.9063,534.2344 Q445.4063,534.2344 444.0859,532.5859 Q442.7656,530.9375 442.7656,527.8125 Q442.7656,524.6875 444.0859,523.0313 Q445.4063,521.375 447.9063,521.375 Q448.6094,521.375 449.2578,521.5313 Q449.9063,521.6875 450.4688,521.9844 L450.4688,524.7031 Q449.8438,524.125 449.25,523.8516 Q448.6563,523.5781 448.0313,523.5781 Q446.6875,523.5781 446,524.6484 Q445.3125,525.7188 445.3125,527.8125 Q445.3125,529.9063 446,530.9766 Q446.6875,532.0469 448.0313,532.0469 Q448.6563,532.0469 449.25,531.7734 Q449.8438,531.5 450.4688,530.9219 L450.4688,533.6406 Z "/><text fill="#000000" font-family="sans-serif" font-size="12" lengthAdjust="spacingAndGlyphs" textLength="180" x="461.5" y="532.1543">PaletteAndSingleContainer 2</text><line style="stroke: #A80036; stroke-width: 1.5;" x1="433.5" x2="643.5" y1="544" y2="544"/><line style="stroke: #A80036; stroke-width: 1.5;" x1="433.5" x2="643.5" y1="552" y2="552"/><!--class SingleFieldContainer 1--><rect fill="#FEFECE" filter="url(#fc0zijw)" height="48" style="stroke: #A80036; stroke-width: 1.5;" width="172" x="116" y="638"/><ellipse cx="131" cy="654" fill="#ADD1B2" rx="11" ry="11" style="stroke: #A80036; stroke-width: 1.0;"/><path d="M133.9688,659.6406 Q133.3906,659.9375 132.75,660.0859 Q132.1094,660.2344 131.4063,660.2344 Q128.9063,660.2344 127.5859,658.5859 Q126.2656,656.9375 126.2656,653.8125 Q126.2656,650.6875 127.5859,649.0313 Q128.9063,647.375 131.4063,647.375 Q132.1094,647.375 132.7578,647.5313 Q133.4063,647.6875 133.9688,647.9844 L133.9688,650.7031 Q133.3438,650.125 132.75,649.8516 Q132.1563,649.5781 131.5313,649.5781 Q130.1875,649.5781 129.5,650.6484 Q128.8125,651.7188 128.8125,653.8125 Q128.8125,655.9063 129.5,656.9766 Q130.1875,658.0469 131.5313,658.0469 Q132.1563,658.0469 132.75,657.7734 Q133.3438,657.5 133.9688,656.9219 L133.9688,659.6406 Z "/><text fill="#000000" font-family="sans-serif" font-size="12" lengthAdjust="spacingAndGlyphs" textLength="140" x="145" y="658.1543">SingleFieldContainer 1</text><line style="stroke: #A80036; stroke-width: 1.5;" x1="117" x2="287" y1="670" y2="670"/><line style="stroke: #A80036; stroke-width: 1.5;" x1="117" x2="287" y1="678" y2="678"/><!--class SingleFieldContainer 2--><rect fill="#FEFECE" filter="url(#fc0zijw)" height="48" style="stroke: #A80036; stroke-width: 1.5;" width="172" x="324" y="638"/><ellipse cx="339" cy="654" fill="#ADD1B2" rx="11" ry="11" style="stroke: #A80036; stroke-width: 1.0;"/><path d="M341.9688,659.6406 Q341.3906,659.9375 340.75,660.0859 Q340.1094,660.2344 339.4063,660.2344 Q336.9063,660.2344 335.5859,658.5859 Q334.2656,656.9375 334.2656,653.8125 Q334.2656,650.6875 335.5859,649.0313 Q336.9063,647.375 339.4063,647.375 Q340.1094,647.375 340.7578,647.5313 Q341.4063,647.6875 341.9688,647.9844 L341.9688,650.7031 Q341.3438,650.125 340.75,649.8516 Q340.1563,649.5781 339.5313,649.5781 Q338.1875,649.5781 337.5,650.6484 Q336.8125,651.7188 336.8125,653.8125 Q336.8125,655.9063 337.5,656.9766 Q338.1875,658.0469 339.5313,658.0469 Q340.1563,658.0469 340.75,657.7734 Q341.3438,657.5 341.9688,656.9219 L341.9688,659.6406 Z "/><text fill="#000000" font-family="sans-serif" font-size="12" lengthAdjust="spacingAndGlyphs" textLength="140" x="353" y="658.1543">SingleFieldContainer 2</text><line style="stroke: #A80036; stroke-width: 1.5;" x1="325" x2="495" y1="670" y2="670"/><line style="stroke: #A80036; stroke-width: 1.5;" x1="325" x2="495" y1="678" y2="678"/><!--class CheckboxElement--><rect fill="#FEFECE" filter="url(#fc0zijw)" height="48" style="stroke: #A80036; stroke-width: 1.5;" width="143" x="130.75" y="764"/><ellipse cx="145.75" cy="780" fill="#ADD1B2" rx="11" ry="11" style="stroke: #A80036; stroke-width: 1.0;"/><path d="M148.7188,785.6406 Q148.1406,785.9375 147.5,786.0859 Q146.8594,786.2344 146.1563,786.2344 Q143.6563,786.2344 142.3359,784.5859 Q141.0156,782.9375 141.0156,779.8125 Q141.0156,776.6875 142.3359,775.0313 Q143.6563,773.375 146.1563,773.375 Q146.8594,773.375 147.5078,773.5313 Q148.1563,773.6875 148.7188,773.9844 L148.7188,776.7031 Q148.0938,776.125 147.5,775.8516 Q146.9063,775.5781 146.2813,775.5781 Q144.9375,775.5781 144.25,776.6484 Q143.5625,777.7188 143.5625,779.8125 Q143.5625,781.9063 144.25,782.9766 Q144.9375,784.0469 146.2813,784.0469 Q146.9063,784.0469 147.5,783.7734 Q148.0938,783.5 148.7188,782.9219 L148.7188,785.6406 Z "/><text fill="#000000" font-family="sans-serif" font-size="12" lengthAdjust="spacingAndGlyphs" textLength="111" x="159.75" y="784.1543">CheckboxElement</text><line style="stroke: #A80036; stroke-width: 1.5;" x1="131.75" x2="272.75" y1="796" y2="796"/><line style="stroke: #A80036; stroke-width: 1.5;" x1="131.75" x2="272.75" y1="804" y2="804"/><!--class RadioElement--><rect fill="#FEFECE" filter="url(#fc0zijw)" height="48" style="stroke: #A80036; stroke-width: 1.5;" width="118" x="352" y="764"/><ellipse cx="367" cy="780" fill="#ADD1B2" rx="11" ry="11" style="stroke: #A80036; stroke-width: 1.0;"/><path d="M369.9688,785.6406 Q369.3906,785.9375 368.75,786.0859 Q368.1094,786.2344 367.4063,786.2344 Q364.9063,786.2344 363.5859,784.5859 Q362.2656,782.9375 362.2656,779.8125 Q362.2656,776.6875 363.5859,775.0313 Q364.9063,773.375 367.4063,773.375 Q368.1094,773.375 368.7578,773.5313 Q369.4063,773.6875 369.9688,773.9844 L369.9688,776.7031 Q369.3438,776.125 368.75,775.8516 Q368.1563,775.5781 367.5313,775.5781 Q366.1875,775.5781 365.5,776.6484 Q364.8125,777.7188 364.8125,779.8125 Q364.8125,781.9063 365.5,782.9766 Q366.1875,784.0469 367.5313,784.0469 Q368.1563,784.0469 368.75,783.7734 Q369.3438,783.5 369.9688,782.9219 L369.9688,785.6406 Z "/><text fill="#000000" font-family="sans-serif" font-size="12" lengthAdjust="spacingAndGlyphs" textLength="86" x="381" y="784.1543">RadioElement</text><line style="stroke: #A80036; stroke-width: 1.5;" x1="353" x2="469" y1="796" y2="796"/><line style="stroke: #A80036; stroke-width: 1.5;" x1="353" x2="469" y1="804" y2="804"/><!--class FieldInformation--><rect fill="#FEFECE" filter="url(#fc0zijw)" height="48" style="stroke: #A80036; stroke-width: 1.5;" width="132" x="6" y="890"/><ellipse cx="21" cy="906" fill="#ADD1B2" rx="11" ry="11" style="stroke: #A80036; stroke-width: 1.0;"/><path d="M23.9688,911.6406 Q23.3906,911.9375 22.75,912.0859 Q22.1094,912.2344 21.4063,912.2344 Q18.9063,912.2344 17.5859,910.5859 Q16.2656,908.9375 16.2656,905.8125 Q16.2656,902.6875 17.5859,901.0313 Q18.9063,899.375 21.4063,899.375 Q22.1094,899.375 22.7578,899.5313 Q23.4063,899.6875 23.9688,899.9844 L23.9688,902.7031 Q23.3438,902.125 22.75,901.8516 Q22.1563,901.5781 21.5313,901.5781 Q20.1875,901.5781 19.5,902.6484 Q18.8125,903.7188 18.8125,905.8125 Q18.8125,907.9063 19.5,908.9766 Q20.1875,910.0469 21.5313,910.0469 Q22.1563,910.0469 22.75,909.7734 Q23.3438,909.5 23.9688,908.9219 L23.9688,911.6406 Z "/><text fill="#000000" font-family="sans-serif" font-size="12" lengthAdjust="spacingAndGlyphs" textLength="100" x="35" y="910.1543">FieldInformation</text><line style="stroke: #A80036; stroke-width: 1.5;" x1="7" x2="137" y1="922" y2="922"/><line style="stroke: #A80036; stroke-width: 1.5;" x1="7" x2="137" y1="930" y2="930"/><!--class FieldWizards--><rect fill="#FEFECE" filter="url(#fc0zijw)" height="48" style="stroke: #A80036; stroke-width: 1.5;" width="108" x="279" y="890"/><ellipse cx="294" cy="906" fill="#ADD1B2" rx="11" ry="11" style="stroke: #A80036; stroke-width: 1.0;"/><path d="M296.9688,911.6406 Q296.3906,911.9375 295.75,912.0859 Q295.1094,912.2344 294.4063,912.2344 Q291.9063,912.2344 290.5859,910.5859 Q289.2656,908.9375 289.2656,905.8125 Q289.2656,902.6875 290.5859,901.0313 Q291.9063,899.375 294.4063,899.375 Q295.1094,899.375 295.7578,899.5313 Q296.4063,899.6875 296.9688,899.9844 L296.9688,902.7031 Q296.3438,902.125 295.75,901.8516 Q295.1563,901.5781 294.5313,901.5781 Q293.1875,901.5781 292.5,902.6484 Q291.8125,903.7188 291.8125,905.8125 Q291.8125,907.9063 292.5,908.9766 Q293.1875,910.0469 294.5313,910.0469 Q295.1563,910.0469 295.75,909.7734 Q296.3438,909.5 296.9688,908.9219 L296.9688,911.6406 Z "/><text fill="#000000" font-family="sans-serif" font-size="12" lengthAdjust="spacingAndGlyphs" textLength="76" x="308" y="910.1543">FieldWizards</text><line style="stroke: #A80036; stroke-width: 1.5;" x1="280" x2="386" y1="922" y2="922"/><line style="stroke: #A80036; stroke-width: 1.5;" x1="280" x2="386" y1="930" y2="930"/><path d="M436,56.033 C436,72.113 436,94.075 436,113.41 " fill="none" style="stroke: #A80036; stroke-width: 1.0;"/><polygon fill="none" points="443,113.67,436,133.67,429,113.67,443,113.67" style="stroke: #A80036; stroke-width: 1.0;"/><text fill="#000000" font-family="sans-serif" font-size="13" lengthAdjust="spacingAndGlyphs" textLength="171" x="437" y="99.0669">Create headline and footer</text><path d="M436,182.033 C436,198.113 436,220.075 436,239.41 " fill="none" style="stroke: #A80036; stroke-width: 1.0;"/><polygon fill="none" points="443,239.67,436,259.67,429,239.67,443,239.67" style="stroke: #A80036; stroke-width: 1.0;"/><text fill="#000000" font-family="sans-serif" font-size="13" lengthAdjust="spacingAndGlyphs" textLength="103" x="437" y="225.0669">Initialize tabbing</text><path d="M436,308.033 C436,324.113 436,346.075 436,365.41 " fill="none" style="stroke: #A80036; stroke-width: 1.0;"/><polygon fill="none" points="443,365.67,436,385.67,429,365.67,443,365.67" style="stroke: #A80036; stroke-width: 1.0;"/><text fill="#000000" font-family="sans-serif" font-size="13" lengthAdjust="spacingAndGlyphs" textLength="159" x="437" y="351.0669">Prepare data of each tab</text><path d="M374.504,425.845 C352.497,433.897 329.166,446.016 313,464 C305.89,471.909 301.078,482.085 297.821,492.247 " fill="none" style="stroke: #A80036; stroke-width: 1.0;"/><polygon fill="none" points="304.618,493.923,293.18,511.761,290.998,490.684,304.618,493.923" style="stroke: #A80036; stroke-width: 1.0;"/><text fill="#000000" font-family="sans-serif" font-size="13" lengthAdjust="spacingAndGlyphs" textLength="160" x="314" y="477.0669">Prepare fields on first tab</text><path d="M457.707,434.1 C466.101,443.255 475.672,453.973 484,464 C492.405,474.12 501.178,485.341 509.149,495.819 " fill="none" style="stroke: #A80036; stroke-width: 1.0;"/><polygon fill="none" points="514.818,491.711,521.22,511.911,503.619,500.112,514.818,491.711" style="stroke: #A80036; stroke-width: 1.0;"/><text fill="#000000" font-family="sans-serif" font-size="13" lengthAdjust="spacingAndGlyphs" textLength="182" x="499" y="477.0669">Prepare fields on second tab</text><path d="M266.732,560.139 C258.074,569.036 248.594,579.569 241,590 C234.256,599.263 227.855,609.82 222.262,619.911 " fill="none" style="stroke: #A80036; stroke-width: 1.0;"/><polygon fill="none" points="228.398,623.281,212.896,637.727,216.006,616.767,228.398,623.281" style="stroke: #A80036; stroke-width: 1.0;"/><text fill="#000000" font-family="sans-serif" font-size="13" lengthAdjust="spacingAndGlyphs" textLength="108" x="242" y="603.0669">Prepare first field</text><path d="M322.389,560.132 C333.505,568.947 345.779,579.427 356,590 C365.283,599.602 374.44,610.793 382.502,621.412 " fill="none" style="stroke: #A80036; stroke-width: 1.0;"/><polygon fill="none" points="388.353,617.555,394.496,637.835,377.047,625.811,388.353,617.555" style="stroke: #A80036; stroke-width: 1.0;"/><text fill="#000000" font-family="sans-serif" font-size="13" lengthAdjust="spacingAndGlyphs" textLength="130" x="372" y="603.0669">Prepare second field</text><path d="M200.206,686.017 C199.327,699.909 198.547,717.968 199,734 C199.086,737.052 199.2,740.201 199.334,743.371 " fill="none" style="stroke: #A80036; stroke-width: 1.0;"/><polygon fill="none" points="206.348,743.455,200.402,763.793,192.367,744.186,206.348,743.455" style="stroke: #A80036; stroke-width: 1.0;"/><text fill="#000000" font-family="sans-serif" font-size="13" lengthAdjust="spacingAndGlyphs" textLength="166" x="200" y="729.0669">Render checkbox element</text><path d="M410.186,686.033 C410.315,702.113 410.493,724.075 410.648,743.41 " fill="none" style="stroke: #A80036; stroke-width: 1.0;"/><polygon fill="none" points="417.65,743.614,410.812,763.67,403.651,743.727,417.65,743.614" style="stroke: #A80036; stroke-width: 1.0;"/><text fill="#000000" font-family="sans-serif" font-size="13" lengthAdjust="spacingAndGlyphs" textLength="138" x="412" y="729.0669">Render radio element</text><path d="M130.614,800.794 C106.996,808.463 83.1576,821.118 69,842 C63.483,850.1374 61.6913,860.0884 61.8403,869.9353 " fill="none" style="stroke: #A80036; stroke-width: 1.0;"/><polygon fill="none" points="68.8093,869.2455,64.4338,889.9784,54.9251,871.0421,68.8093,869.2455" style="stroke: #A80036; stroke-width: 1.0;"/><text fill="#000000" font-family="sans-serif" font-size="13" lengthAdjust="spacingAndGlyphs" textLength="218" x="70" y="855.0669">Render additional field information</text><path d="M253.237,812.007 C267.571,820.082 282.389,830.151 294,842 C302.366,850.5383 309.476,861.2341 315.242,871.7132 " fill="none" style="stroke: #A80036; stroke-width: 1.0;"/><polygon fill="none" points="321.607,868.7926,324.15,889.8291,309.043,874.97,321.607,868.7926" style="stroke: #A80036; stroke-width: 1.0;"/><text fill="#000000" font-family="sans-serif" font-size="13" lengthAdjust="spacingAndGlyphs" textLength="192" x="309" y="855.0669">Render additional field wizards</text></g></svg>