<?xml version="1.0" encoding="UTF-8" standalone="no"?><svg xmlns="http://www.w3.org/2000/svg" xmlns:xlink="http://www.w3.org/1999/xlink" contentScriptType="application/ecmascript" contentStyleType="text/css" height="389px" preserveAspectRatio="none" style="width:978px;height:389px;" version="1.1" viewBox="0 0 978 389" width="978px" zoomAndPan="magnify"><defs><filter height="300%" id="fb554zq" width="300%" x="-1" y="-1"><feGaussianBlur result="blurOut" stdDeviation="2.0"/><feColorMatrix in="blurOut" result="blurOut2" type="matrix" values="0 0 0 0 0 0 0 0 0 0 0 0 0 0 0 0 0 0 .4 0"/><feOffset dx="4.0" dy="4.0" in="blurOut2" result="blurOut3"/><feBlend in="SourceGraphic" in2="blurOut3" mode="normal"/></filter></defs><g><!--class NodeInterface--><rect fill="#FEFECE" filter="url(#fb554zq)" height="48" style="stroke: #A80036; stroke-width: 1.5;" width="122" x="478.25" y="8"/><ellipse cx="493.25" cy="24" fill="#B4A7E5" rx="11" ry="11" style="stroke: #A80036; stroke-width: 1.0;"/><path d="M489.1719,19.7656 L489.1719,17.6094 L496.5625,17.6094 L496.5625,19.7656 L494.0938,19.7656 L494.0938,27.8438 L496.5625,27.8438 L496.5625,30 L489.1719,30 L489.1719,27.8438 L491.6406,27.8438 L491.6406,19.7656 L489.1719,19.7656 Z "/><text fill="#000000" font-family="sans-serif" font-size="12" font-style="italic" lengthAdjust="spacingAndGlyphs" textLength="90" x="507.25" y="28.1543">NodeInterface</text><line style="stroke: #A80036; stroke-width: 1.5;" x1="479.25" x2="599.25" y1="40" y2="40"/><line style="stroke: #A80036; stroke-width: 1.5;" x1="479.25" x2="599.25" y1="48" y2="48"/><!--class AbstractNode--><rect fill="#FEFECE" filter="url(#fb554zq)" height="48" style="stroke: #A80036; stroke-width: 1.5;" width="117" x="481" y="116"/><ellipse cx="496" cy="132" fill="#A9DCDF" rx="11" ry="11" style="stroke: #A80036; stroke-width: 1.0;"/><path d="M496.1094,127.3438 L494.9531,132.4219 L497.2813,132.4219 L496.1094,127.3438 Z M494.625,125.1094 L497.6094,125.1094 L500.9688,137.5 L498.5156,137.5 L497.75,134.4375 L494.4688,134.4375 L493.7188,137.5 L491.2813,137.5 L494.625,125.1094 Z "/><text fill="#000000" font-family="sans-serif" font-size="12" font-style="italic" lengthAdjust="spacingAndGlyphs" textLength="85" x="510" y="136.1543">AbstractNode</text><line style="stroke: #A80036; stroke-width: 1.5;" x1="482" x2="597" y1="148" y2="148"/><line style="stroke: #A80036; stroke-width: 1.5;" x1="482" x2="597" y1="156" y2="156"/><!--class Container\AbstractContainer--><rect fill="#FEFECE" filter="url(#fb554zq)" height="48" style="stroke: #A80036; stroke-width: 1.5;" width="210" x="60.25" y="224"/><ellipse cx="75.25" cy="240" fill="#A9DCDF" rx="11" ry="11" style="stroke: #A80036; stroke-width: 1.0;"/><path d="M75.3594,235.3438 L74.2031,240.4219 L76.5313,240.4219 L75.3594,235.3438 Z M73.875,233.1094 L76.8594,233.1094 L80.2188,245.5 L77.7656,245.5 L77,242.4375 L73.7188,242.4375 L72.9688,245.5 L70.5313,245.5 L73.875,233.1094 Z "/><text fill="#000000" font-family="sans-serif" font-size="12" font-style="italic" lengthAdjust="spacingAndGlyphs" textLength="178" x="89.25" y="244.1543">Container\AbstractContainer</text><line style="stroke: #A80036; stroke-width: 1.5;" x1="61.25" x2="269.25" y1="256" y2="256"/><line style="stroke: #A80036; stroke-width: 1.5;" x1="61.25" x2="269.25" y1="264" y2="264"/><!--class Element\AbstractFormElement--><rect fill="#FEFECE" filter="url(#fb554zq)" height="48" style="stroke: #A80036; stroke-width: 1.5;" width="221" x="306" y="224"/><ellipse cx="321" cy="240" fill="#A9DCDF" rx="11" ry="11" style="stroke: #A80036; stroke-width: 1.0;"/><path d="M321.1094,235.3438 L319.9531,240.4219 L322.2813,240.4219 L321.1094,235.3438 Z M319.625,233.1094 L322.6094,233.1094 L325.9688,245.5 L323.5156,245.5 L322.75,242.4375 L319.4688,242.4375 L318.7188,245.5 L316.2813,245.5 L319.625,233.1094 Z "/><text fill="#000000" font-family="sans-serif" font-size="12" font-style="italic" lengthAdjust="spacingAndGlyphs" textLength="189" x="335" y="244.1543">Element\AbstractFormElement</text><line style="stroke: #A80036; stroke-width: 1.5;" x1="307" x2="526" y1="256" y2="256"/><line style="stroke: #A80036; stroke-width: 1.5;" x1="307" x2="526" y1="264" y2="264"/><!--class NodeExpansion\FieldWizard--><rect fill="#FEFECE" filter="url(#fb554zq)" height="48" style="stroke: #A80036; stroke-width: 1.5;" width="202" x="562.25" y="224"/><ellipse cx="577.25" cy="240" fill="#ADD1B2" rx="11" ry="11" style="stroke: #A80036; stroke-width: 1.0;"/><path d="M580.2188,245.6406 Q579.6406,245.9375 579,246.0859 Q578.3594,246.2344 577.6563,246.2344 Q575.1563,246.2344 573.8359,244.5859 Q572.5156,242.9375 572.5156,239.8125 Q572.5156,236.6875 573.8359,235.0313 Q575.1563,233.375 577.6563,233.375 Q578.3594,233.375 579.0078,233.5313 Q579.6563,233.6875 580.2188,233.9844 L580.2188,236.7031 Q579.5938,236.125 579,235.8516 Q578.4063,235.5781 577.7813,235.5781 Q576.4375,235.5781 575.75,236.6484 Q575.0625,237.7188 575.0625,239.8125 Q575.0625,241.9063 575.75,242.9766 Q576.4375,244.0469 577.7813,244.0469 Q578.4063,244.0469 579,243.7734 Q579.5938,243.5 580.2188,242.9219 L580.2188,245.6406 Z "/><text fill="#000000" font-family="sans-serif" font-size="12" lengthAdjust="spacingAndGlyphs" textLength="170" x="591.25" y="244.1543">NodeExpansion\FieldWizard</text><line style="stroke: #A80036; stroke-width: 1.5;" x1="563.25" x2="763.25" y1="256" y2="256"/><line style="stroke: #A80036; stroke-width: 1.5;" x1="563.25" x2="763.25" y1="264" y2="264"/><!--class FieldWizard\FileUpload--><rect fill="#FEFECE" filter="url(#fb554zq)" height="48" style="stroke: #A80036; stroke-width: 1.5;" width="170" x="799.25" y="224"/><ellipse cx="814.25" cy="240" fill="#ADD1B2" rx="11" ry="11" style="stroke: #A80036; stroke-width: 1.0;"/><path d="M817.2188,245.6406 Q816.6406,245.9375 816,246.0859 Q815.3594,246.2344 814.6563,246.2344 Q812.1563,246.2344 810.8359,244.5859 Q809.5156,242.9375 809.5156,239.8125 Q809.5156,236.6875 810.8359,235.0313 Q812.1563,233.375 814.6563,233.375 Q815.3594,233.375 816.0078,233.5313 Q816.6563,233.6875 817.2188,233.9844 L817.2188,236.7031 Q816.5938,236.125 816,235.8516 Q815.4063,235.5781 814.7813,235.5781 Q813.4375,235.5781 812.75,236.6484 Q812.0625,237.7188 812.0625,239.8125 Q812.0625,241.9063 812.75,242.9766 Q813.4375,244.0469 814.7813,244.0469 Q815.4063,244.0469 816,243.7734 Q816.5938,243.5 817.2188,242.9219 L817.2188,245.6406 Z "/><text fill="#000000" font-family="sans-serif" font-size="12" lengthAdjust="spacingAndGlyphs" textLength="138" x="828.25" y="244.1543">FieldWizard\FileUpload</text><line style="stroke: #A80036; stroke-width: 1.5;" x1="800.25" x2="968.25" y1="256" y2="256"/><line style="stroke: #A80036; stroke-width: 1.5;" x1="800.25" x2="968.25" y1="264" y2="264"/><!--class aContainer--><rect fill="#FEFECE" filter="url(#fb554zq)" height="48" style="stroke: #A80036; stroke-width: 1.5;" width="101" x="6" y="332"/><ellipse cx="21" cy="348" fill="#ADD1B2" rx="11" ry="11" style="stroke: #A80036; stroke-width: 1.0;"/><path d="M23.9688,353.6406 Q23.3906,353.9375 22.75,354.0859 Q22.1094,354.2344 21.4063,354.2344 Q18.9063,354.2344 17.5859,352.5859 Q16.2656,350.9375 16.2656,347.8125 Q16.2656,344.6875 17.5859,343.0313 Q18.9063,341.375 21.4063,341.375 Q22.1094,341.375 22.7578,341.5313 Q23.4063,341.6875 23.9688,341.9844 L23.9688,344.7031 Q23.3438,344.125 22.75,343.8516 Q22.1563,343.5781 21.5313,343.5781 Q20.1875,343.5781 19.5,344.6484 Q18.8125,345.7188 18.8125,347.8125 Q18.8125,349.9063 19.5,350.9766 Q20.1875,352.0469 21.5313,352.0469 Q22.1563,352.0469 22.75,351.7734 Q23.3438,351.5 23.9688,350.9219 L23.9688,353.6406 Z "/><text fill="#000000" font-family="sans-serif" font-size="12" lengthAdjust="spacingAndGlyphs" textLength="69" x="35" y="352.1543">aContainer</text><line style="stroke: #A80036; stroke-width: 1.5;" x1="7" x2="106" y1="364" y2="364"/><line style="stroke: #A80036; stroke-width: 1.5;" x1="7" x2="106" y1="372" y2="372"/><!--class anotherContainer--><rect fill="#FEFECE" filter="url(#fb554zq)" height="48" style="stroke: #A80036; stroke-width: 1.5;" width="143" x="142" y="332"/><ellipse cx="157" cy="348" fill="#ADD1B2" rx="11" ry="11" style="stroke: #A80036; stroke-width: 1.0;"/><path d="M159.9688,353.6406 Q159.3906,353.9375 158.75,354.0859 Q158.1094,354.2344 157.4063,354.2344 Q154.9063,354.2344 153.5859,352.5859 Q152.2656,350.9375 152.2656,347.8125 Q152.2656,344.6875 153.5859,343.0313 Q154.9063,341.375 157.4063,341.375 Q158.1094,341.375 158.7578,341.5313 Q159.4063,341.6875 159.9688,341.9844 L159.9688,344.7031 Q159.3438,344.125 158.75,343.8516 Q158.1563,343.5781 157.5313,343.5781 Q156.1875,343.5781 155.5,344.6484 Q154.8125,345.7188 154.8125,347.8125 Q154.8125,349.9063 155.5,350.9766 Q156.1875,352.0469 157.5313,352.0469 Q158.1563,352.0469 158.75,351.7734 Q159.3438,351.5 159.9688,350.9219 L159.9688,353.6406 Z "/><text fill="#000000" font-family="sans-serif" font-size="12" lengthAdjust="spacingAndGlyphs" textLength="111" x="171" y="352.1543">anotherContainer</text><line style="stroke: #A80036; stroke-width: 1.5;" x1="143" x2="284" y1="364" y2="364"/><line style="stroke: #A80036; stroke-width: 1.5;" x1="143" x2="284" y1="372" y2="372"/><!--class anElement--><rect fill="#FEFECE" filter="url(#fb554zq)" height="48" style="stroke: #A80036; stroke-width: 1.5;" width="99" x="367" y="332"/><ellipse cx="382" cy="348" fill="#ADD1B2" rx="11" ry="11" style="stroke: #A80036; stroke-width: 1.0;"/><path d="M384.9688,353.6406 Q384.3906,353.9375 383.75,354.0859 Q383.1094,354.2344 382.4063,354.2344 Q379.9063,354.2344 378.5859,352.5859 Q377.2656,350.9375 377.2656,347.8125 Q377.2656,344.6875 378.5859,343.0313 Q379.9063,341.375 382.4063,341.375 Q383.1094,341.375 383.7578,341.5313 Q384.4063,341.6875 384.9688,341.9844 L384.9688,344.7031 Q384.3438,344.125 383.75,343.8516 Q383.1563,343.5781 382.5313,343.5781 Q381.1875,343.5781 380.5,344.6484 Q379.8125,345.7188 379.8125,347.8125 Q379.8125,349.9063 380.5,350.9766 Q381.1875,352.0469 382.5313,352.0469 Q383.1563,352.0469 383.75,351.7734 Q384.3438,351.5 384.9688,350.9219 L384.9688,353.6406 Z "/><text fill="#000000" font-family="sans-serif" font-size="12" lengthAdjust="spacingAndGlyphs" textLength="67" x="396" y="352.1543">anElement</text><line style="stroke: #A80036; stroke-width: 1.5;" x1="368" x2="465" y1="364" y2="364"/><line style="stroke: #A80036; stroke-width: 1.5;" x1="368" x2="465" y1="372" y2="372"/><path d="M539.25,76.024 C539.25,89.579 539.25,104.038 539.25,115.678 " fill="none" style="stroke: #A80036; stroke-width: 1.0;"/><polygon fill="none" points="532.25,76,539.25,56,546.25,76,532.25,76" style="stroke: #A80036; stroke-width: 1.0;"/><path d="M461.349,163.079 C398.469,180.9 310.279,205.895 246.518,223.967 " fill="none" style="stroke: #A80036; stroke-width: 1.0;"/><polygon fill="none" points="459.662,156.281,480.812,157.562,463.479,169.751,459.662,156.281" style="stroke: #A80036; stroke-width: 1.0;"/><path d="M497.356,177.104 C479.487,192.503 459.151,210.029 443.312,223.678 " fill="none" style="stroke: #A80036; stroke-width: 1.0;"/><polygon fill="none" points="492.841,171.754,512.561,164,501.98,182.359,492.841,171.754" style="stroke: #A80036; stroke-width: 1.0;"/><path d="M581.484,177.104 C599.499,192.503 620.001,210.029 635.968,223.678 " fill="none" style="stroke: #A80036; stroke-width: 1.0;"/><polygon fill="none" points="576.81,182.317,566.156,164,585.907,171.675,576.81,182.317" style="stroke: #A80036; stroke-width: 1.0;"/><path d="M617.185,164.945 C674.642,182.599 752.356,206.476 809.134,223.921 " fill="none" style="stroke: #A80036; stroke-width: 1.0;"/><polygon fill="none" points="614.837,171.547,597.775,158.981,618.948,158.164,614.837,171.547" style="stroke: #A80036; stroke-width: 1.0;"/><path d="M126.915,286.2802 C111.377,301.3905 93.9114,318.3752 80.2316,331.6784 " fill="none" style="stroke: #A80036; stroke-width: 1.0;"/><polygon fill="none" points="122.38,280.9256,141.599,272,132.141,290.9622,122.38,280.9256" style="stroke: #A80036; stroke-width: 1.0;"/><path d="M184.076,290.5748 C190.401,304.5428 197.23,319.6224 202.689,331.6784 " fill="none" style="stroke: #A80036; stroke-width: 1.0;"/><polygon fill="none" points="177.539,293.1071,175.665,272,190.292,287.3319,177.539,293.1071" style="stroke: #A80036; stroke-width: 1.0;"/><path d="M416.25,292.0236 C416.25,305.5792 416.25,320.0381 416.25,331.6784 " fill="none" style="stroke: #A80036; stroke-width: 1.0;"/><polygon fill="none" points="409.25,292.0005,416.25,272,423.25,292.0004,409.25,292.0005" style="stroke: #A80036; stroke-width: 1.0;"/></g></svg>