<?xml version="1.0" encoding="UTF-8" standalone="no"?><svg xmlns="http://www.w3.org/2000/svg" xmlns:xlink="http://www.w3.org/1999/xlink" contentScriptType="application/ecmascript" contentStyleType="text/css" height="417px" preserveAspectRatio="none" style="width:909px;height:417px;" version="1.1" viewBox="0 0 909 417" width="909px" zoomAndPan="magnify"><defs><filter height="300%" id="fecqt3y" width="300%" x="-1" y="-1"><feGaussianBlur result="blurOut" stdDeviation="2.0"/><feColorMatrix in="blurOut" result="blurOut2" type="matrix" values="0 0 0 0 0 0 0 0 0 0 0 0 0 0 0 0 0 0 .4 0"/><feOffset dx="4.0" dy="4.0" in="blurOut2" result="blurOut3"/><feBlend in="SourceGraphic" in2="blurOut3" mode="normal"/></filter></defs><g><line style="stroke: #A80036; stroke-width: 1.0; stroke-dasharray: 5.0,5.0;" x1="50" x2="50" y1="38.2969" y2="378.7578"/><line style="stroke: #A80036; stroke-width: 1.0; stroke-dasharray: 5.0,5.0;" x1="291.5" x2="291.5" y1="38.2969" y2="378.7578"/><line style="stroke: #A80036; stroke-width: 1.0; stroke-dasharray: 5.0,5.0;" x1="484.5" x2="484.5" y1="38.2969" y2="378.7578"/><line style="stroke: #A80036; stroke-width: 1.0; stroke-dasharray: 5.0,5.0;" x1="614.5" x2="614.5" y1="38.2969" y2="378.7578"/><line style="stroke: #A80036; stroke-width: 1.0; stroke-dasharray: 5.0,5.0;" x1="844" x2="844" y1="38.2969" y2="378.7578"/><rect fill="#FEFECE" filter="url(#fecqt3y)" height="30.2969" style="stroke: #A80036; stroke-width: 1.5;" width="81" x="8" y="3"/><text fill="#000000" font-family="sans-serif" font-size="14" lengthAdjust="spacingAndGlyphs" textLength="67" x="15" y="22.9951">Controller</text><rect fill="#FEFECE" filter="url(#fecqt3y)" height="30.2969" style="stroke: #A80036; stroke-width: 1.5;" width="81" x="8" y="377.7578"/><text fill="#000000" font-family="sans-serif" font-size="14" lengthAdjust="spacingAndGlyphs" textLength="67" x="15" y="397.7529">Controller</text><rect fill="#FEFECE" filter="url(#fecqt3y)" height="30.2969" style="stroke: #A80036; stroke-width: 1.5;" width="142" x="218.5" y="3"/><text fill="#000000" font-family="sans-serif" font-size="14" lengthAdjust="spacingAndGlyphs" textLength="128" x="225.5" y="22.9951">FormDataCompiler</text><rect fill="#FEFECE" filter="url(#fecqt3y)" height="30.2969" style="stroke: #A80036; stroke-width: 1.5;" width="142" x="218.5" y="377.7578"/><text fill="#000000" font-family="sans-serif" font-size="14" lengthAdjust="spacingAndGlyphs" textLength="128" x="225.5" y="397.7529">FormDataCompiler</text><rect fill="#FEFECE" filter="url(#fecqt3y)" height="30.2969" style="stroke: #A80036; stroke-width: 1.5;" width="132" x="416.5" y="3"/><text fill="#000000" font-family="sans-serif" font-size="14" lengthAdjust="spacingAndGlyphs" textLength="118" x="423.5" y="22.9951">aFormDataGroup</text><rect fill="#FEFECE" filter="url(#fecqt3y)" height="30.2969" style="stroke: #A80036; stroke-width: 1.5;" width="132" x="416.5" y="377.7578"/><text fill="#000000" font-family="sans-serif" font-size="14" lengthAdjust="spacingAndGlyphs" textLength="118" x="423.5" y="397.7529">aFormDataGroup</text><rect fill="#FEFECE" filter="url(#fecqt3y)" height="30.2969" style="stroke: #A80036; stroke-width: 1.5;" width="101" x="562.5" y="3"/><text fill="#000000" font-family="sans-serif" font-size="14" lengthAdjust="spacingAndGlyphs" textLength="87" x="569.5" y="22.9951">NodeFactory</text><rect fill="#FEFECE" filter="url(#fecqt3y)" height="30.2969" style="stroke: #A80036; stroke-width: 1.5;" width="101" x="562.5" y="377.7578"/><text fill="#000000" font-family="sans-serif" font-size="14" lengthAdjust="spacingAndGlyphs" textLength="87" x="569.5" y="397.7529">NodeFactory</text><rect fill="#FEFECE" filter="url(#fecqt3y)" height="30.2969" style="stroke: #A80036; stroke-width: 1.5;" width="116" x="784" y="3"/><text fill="#000000" font-family="sans-serif" font-size="14" lengthAdjust="spacingAndGlyphs" textLength="102" x="791" y="22.9951">EntryContainer</text><rect fill="#FEFECE" filter="url(#fecqt3y)" height="30.2969" style="stroke: #A80036; stroke-width: 1.5;" width="116" x="784" y="377.7578"/><text fill="#000000" font-family="sans-serif" font-size="14" lengthAdjust="spacingAndGlyphs" textLength="102" x="791" y="397.7529">EntryContainer</text><polygon fill="#A80036" points="279.5,65.2969,289.5,69.2969,279.5,73.2969,283.5,69.2969" style="stroke: #A80036; stroke-width: 1.0;"/><line style="stroke: #A80036; stroke-width: 1.0;" x1="50.5" x2="285.5" y1="69.2969" y2="69.2969"/><text fill="#000000" font-family="sans-serif" font-size="13" lengthAdjust="spacingAndGlyphs" textLength="166" x="57.5" y="64.3638">Initialize aFormDataGroup</text><polygon fill="#A80036" points="472.5,94.4297,482.5,98.4297,472.5,102.4297,476.5,98.4297" style="stroke: #A80036; stroke-width: 1.0;"/><line style="stroke: #A80036; stroke-width: 1.0;" x1="291.5" x2="478.5" y1="98.4297" y2="98.4297"/><text fill="#000000" font-family="sans-serif" font-size="13" lengthAdjust="spacingAndGlyphs" textLength="146" x="298.5" y="93.4966">Prepare data providers</text><polygon fill="#A80036" points="302.5,123.5625,292.5,127.5625,302.5,131.5625,298.5,127.5625" style="stroke: #A80036; stroke-width: 1.0;"/><line style="stroke: #A80036; stroke-width: 1.0;" x1="296.5" x2="483.5" y1="127.5625" y2="127.5625"/><text fill="#000000" font-family="sans-serif" font-size="13" lengthAdjust="spacingAndGlyphs" textLength="105" x="308.5" y="122.6294">Explode on error</text><polygon fill="#A80036" points="279.5,152.6953,289.5,156.6953,279.5,160.6953,283.5,156.6953" style="stroke: #A80036; stroke-width: 1.0;"/><line style="stroke: #A80036; stroke-width: 1.0;" x1="50.5" x2="285.5" y1="156.6953" y2="156.6953"/><text fill="#000000" font-family="sans-serif" font-size="13" lengthAdjust="spacingAndGlyphs" textLength="217" x="57.5" y="151.7622">Give initialized data, call compile()</text><polygon fill="#A80036" points="472.5,181.8281,482.5,185.8281,472.5,189.8281,476.5,185.8281" style="stroke: #A80036; stroke-width: 1.0;"/><line style="stroke: #A80036; stroke-width: 1.0;" x1="291.5" x2="478.5" y1="185.8281" y2="185.8281"/><text fill="#000000" font-family="sans-serif" font-size="13" lengthAdjust="spacingAndGlyphs" textLength="156" x="298.5" y="180.895">Compile single providers</text><polygon fill="#A80036" points="302.5,210.9609,292.5,214.9609,302.5,218.9609,298.5,214.9609" style="stroke: #A80036; stroke-width: 1.0;"/><line style="stroke: #A80036; stroke-width: 1.0;" x1="296.5" x2="483.5" y1="214.9609" y2="214.9609"/><text fill="#000000" font-family="sans-serif" font-size="13" lengthAdjust="spacingAndGlyphs" textLength="169" x="308.5" y="210.0278">Return updated data array</text><polygon fill="#A80036" points="61.5,240.0938,51.5,244.0938,61.5,248.0938,57.5,244.0938" style="stroke: #A80036; stroke-width: 1.0;"/><line style="stroke: #A80036; stroke-width: 1.0;" x1="55.5" x2="290.5" y1="244.0938" y2="244.0938"/><text fill="#000000" font-family="sans-serif" font-size="13" lengthAdjust="spacingAndGlyphs" textLength="134" x="67.5" y="239.1606">Return full data arary</text><polygon fill="#A80036" points="603,269.2266,613,273.2266,603,277.2266,607,273.2266" style="stroke: #A80036; stroke-width: 1.0;"/><line style="stroke: #A80036; stroke-width: 1.0;" x1="50.5" x2="609" y1="273.2266" y2="273.2266"/><text fill="#000000" font-family="sans-serif" font-size="13" lengthAdjust="spacingAndGlyphs" textLength="141" x="57.5" y="268.2935">Receive full data array</text><polygon fill="#A80036" points="832,298.3594,842,302.3594,832,306.3594,836,302.3594" style="stroke: #A80036; stroke-width: 1.0;"/><line style="stroke: #A80036; stroke-width: 1.0;" x1="615" x2="838" y1="302.3594" y2="302.3594"/><text fill="#000000" font-family="sans-serif" font-size="13" lengthAdjust="spacingAndGlyphs" textLength="173" x="622" y="297.4263">Render self, sub containers</text><polygon fill="#A80036" points="626,327.4922,616,331.4922,626,335.4922,622,331.4922" style="stroke: #A80036; stroke-width: 1.0;"/><line style="stroke: #A80036; stroke-width: 1.0;" x1="620" x2="843" y1="331.4922" y2="331.4922"/><text fill="#000000" font-family="sans-serif" font-size="13" lengthAdjust="spacingAndGlyphs" textLength="205" x="632" y="326.5591">Return result with HTML, CSS, JS</text><polygon fill="#A80036" points="61.5,356.625,51.5,360.625,61.5,364.625,57.5,360.625" style="stroke: #A80036; stroke-width: 1.0;"/><line style="stroke: #A80036; stroke-width: 1.0;" x1="55.5" x2="614" y1="360.625" y2="360.625"/><text fill="#000000" font-family="sans-serif" font-size="13" lengthAdjust="spacingAndGlyphs" textLength="119" x="67.5" y="355.6919">Return result array</text></g></svg>